<svg width="24" height="24" viewBox="0 0 24 24" fill="none" xmlns="http://www.w3.org/2000/svg">
<rect width="24" height="24" rx="12" fill="black" fill-opacity="0.5"/>
<path d="M3.99219 10.1562C3.99219 7.28906 5.97656 5.28906 8.53125 5.28906C10.0156 5.28906 11.1875 5.98438 11.8828 7.00781C12.5859 5.97656 13.75 5.28906 15.2344 5.28906C17.7969 5.28906 19.7734 7.28906 19.7734 10.1562C19.7734 13.5 16.9766 16.7969 12.6094 19.6094C12.375 19.7578 12.0859 19.9062 11.8828 19.9062C11.6875 19.9062 11.3906 19.7578 11.1562 19.6094C6.78906 16.7969 3.99219 13.5 3.99219 10.1562ZM5.5625 10.1562C5.5625 12.9219 8.44531 15.9766 11.7344 18.1641C11.8047 18.2109 11.8516 18.2422 11.8828 18.2422C11.9141 18.2422 11.9609 18.2109 12.0312 18.1641C15.3203 15.9766 18.2031 12.9219 18.2031 10.1562C18.2031 8.17188 16.8984 6.83594 15.1484 6.83594C13.7422 6.83594 12.9766 7.70312 12.4531 8.44531C12.2188 8.75 12.0859 8.85938 11.8828 8.85938C11.6797 8.85938 11.5312 8.75781 11.3125 8.44531C10.8203 7.69531 10.0312 6.83594 8.61719 6.83594C6.86719 6.83594 5.5625 8.17188 5.5625 10.1562Z" fill="white"/>
</svg>
